# xmcd
#
# Track frame offsets: 
#        150
#        17628
#        39560
#        59572
#        79250
#        102220
#        122495
#        148154
#        160625
#        176777
#        197017
#        216422
#        250202
#
# Disc length: 4160 seconds
#
# Revision: 2
# Processed by: cddbd v1.5.2PL0 Copyright (c) Steve Scherf et al.
# Submitted via: ExactAudioCopy v1.0b3
#
DISCID=b8103e0d
DTITLE=Joss Stone - Colour me free!
DYEAR=2009
DGENRE=Soul
TTITLE0=Free me
TTITLE1=Could have been you
TTITLE2=Joss Stone - Jeff Beck - Sheila E. - Parallel lines
TTITLE3=Lady
TTITLE4=4 and 20
TTITLE5=Joss Stone - Raphael Saadiq - Big ol' game
TTITLE6=Joss Stone - Nas - Governmentalist
TTITLE7=Incredible
TTITLE8=You got the love
TTITLE9=Joss Stone - David Sanborn - I believe it to my soul
TTITLE10=Joss Stone - Jamie Hartman - Stalemate
TTITLE11=Girlfriend on demand
TTITLE12=Mr Wankerman
EXTD=
EXTT0=
EXTT1=
EXTT2=
EXTT3=
EXTT4=
EXTT5=
EXTT6=
EXTT7=
EXTT8=
EXTT9=
EXTT10=
EXTT11=
EXTT12=
PLAYORDER=
